<?xml version="1.0" encoding="UTF-8"?>
<svg width="18px" height="18px" viewBox="0 0 18 18" version="1.1" xmlns="http://www.w3.org/2000/svg" xmlns:xlink="http://www.w3.org/1999/xlink">
    <!-- Generator: Sketch 52.4 (67378) - http://www.bohemiancoding.com/sketch -->
    <title>Group 129</title>
    <desc>Created with Sketch.</desc>
    <g id="Faye" stroke="none" stroke-width="1" fill="none" fill-rule="evenodd">
        <g id="Group-129" transform="translate(-1.000000, -1.000000)">
            <rect id="Rectangle-44" x="0" y="0" width="20" height="20"></rect>
            <g id="edit" transform="translate(1.250000, 1.250000)" fill="white" fill-rule="nonzero">
                <path d="M16.796875,16.09375 L0.703125,16.09375 C0.314453125,16.09375 0,16.4082031 0,16.796875 C0,17.1855469 0.314453125,17.5 0.703125,17.5 L16.796875,17.5 C17.1855469,17.5 17.5,17.1855469 17.5,16.796875 C17.5,16.4082031 17.1855469,16.09375 16.796875,16.09375 Z M4.53125,13.7890625 L9.13085938,11.8417969 C9.20507813,11.8105469 9.27148438,11.765625 9.33007813,11.7089844 L17.0878906,3.95117188 C17.6367188,3.40234375 17.640625,2.5078125 17.0917969,1.95898438 L15.5429688,0.41015625 C14.9941406,-0.138671875 14.0996094,-0.134765625 13.5507813,0.4140625 L5.79296875,8.171875 C5.73632813,8.22851563 5.69140625,8.296875 5.66015625,8.37109375 L3.7109375,12.96875 C3.6015625,13.2265625 3.67773438,13.4863281 3.84375,13.6542969 C4.00976563,13.8222656 4.27148438,13.8984375 4.53125,13.7890625 Z M14.5449219,1.40820313 L14.5488281,1.40429688 L16.0957031,2.95117188 L16.0917969,2.95507813 L14.8808594,4.16601563 L13.3339844,2.61914063 L14.5449219,1.40820313 Z M6.89453125,9.05859375 L12.3398438,3.61328125 L13.8867188,5.16015625 L8.44140625,10.6054688 L5.7578125,11.7421875 L6.89453125,9.05859375 Z" id="Shape"></path>
            </g>
        </g>
    </g>
</svg>