<?xml version="1.0" encoding="UTF-8"?>
<svg width="12px" height="16px" viewBox="0 0 12 16" version="1.1" xmlns="http://www.w3.org/2000/svg" xmlns:xlink="http://www.w3.org/1999/xlink">
    <!-- Generator: Sketch 52.4 (67378) - http://www.bohemiancoding.com/sketch -->
    <title>Shape</title>
    <desc>Created with Sketch.</desc>
    <g id="Faye" stroke="none" stroke-width="1" fill="none" fill-rule="evenodd">
        <path d="M11.6808344,4.715625 L7.3345502,0.3328125 C7.26414602,0.2625 7.1874837,0.203125 7.10456323,0.153125 C7.08265971,0.140625 7.06075619,0.128125 7.03728814,0.1171875 C7.0232073,0.109375 7.00756193,0.103125 6.9934811,0.096875 C6.85267275,0.034375 6.69778357,0 6.53976532,0 L1.14211213,0 C0.519426336,0 0,0.503125 0,1.125 L0,14.875 C0,15.496875 0.519426336,16 1.14211213,16 L10.8891786,16 C11.5118644,16 12,15.496875 12,14.875 L12,5.5078125 C12,5.2109375 11.8904824,4.9265625 11.6808344,4.715625 Z M7.11864407,1.725 L10.2602347,4.875 L7.11864407,4.875 L7.11864407,1.725 Z M10.8735332,14.875 L1.12646675,14.875 L1.12646675,1.125 L5.99217731,1.125 L5.99217731,4.875 C5.99217731,5.496875 6.51160365,6 7.13428944,6 L10.8735332,6 L10.8735332,14.875 Z M7.13428944,7.5625 C7.13428944,7.2515625 6.88239896,7 6.57105606,7 L2.56584094,7 C2.25449804,7 2.00260756,7.2515625 2.00260756,7.5625 C2.00260756,7.8734375 2.25449804,8.125 2.56584094,8.125 L6.57105606,8.125 C6.88239896,8.125 7.13428944,7.8734375 7.13428944,7.5625 Z M10.1382008,10.0625 C10.1382008,9.7515625 9.8863103,9.5 9.57496741,9.5 L2.56584094,9.5 C2.25449804,9.5 2.00260756,9.7515625 2.00260756,10.0625 C2.00260756,10.3734375 2.25449804,10.625 2.56584094,10.625 L9.57496741,10.625 C9.8863103,10.625 10.1382008,10.3734375 10.1382008,10.0625 Z M8.13559322,12.5625 C8.13559322,12.2515625 7.88370274,12 7.57235984,12 L2.56584094,12 C2.25449804,12 2.00260756,12.2515625 2.00260756,12.5625 C2.00260756,12.8734375 2.25449804,13.125 2.56584094,13.125 L7.57235984,13.125 C7.88370274,13.125 8.13559322,12.8734375 8.13559322,12.5625 Z" id="Shape" fill="#000000" fill-rule="nonzero"></path>
    </g>
</svg>