<?xml version="1.0" encoding="UTF-8"?>
<svg width="15px" height="17px" viewBox="0 0 15 17" version="1.1" xmlns="http://www.w3.org/2000/svg" xmlns:xlink="http://www.w3.org/1999/xlink">
    <!-- Generator: Sketch 52.4 (67378) - http://www.bohemiancoding.com/sketch -->
    <title>filter</title>
    <desc>Created with Sketch.</desc>
    <g id="Faye" stroke="none" stroke-width="1" fill="none" fill-rule="evenodd">
        <g id="filter" fill="#000000" fill-rule="nonzero">
            <path d="M14.8652344,1.02796875 C14.6152344,0.410390625 14.0292969,0.011953125 13.3730469,0.011953125 L1.62109375,0.011953125 C0.966796875,0.011953125 0.380859375,0.410390625 0.12890625,1.02796875 C-0.123046875,1.64554688 0.013671875,2.34878906 0.4765625,2.82292969 L5.80859375,8.06835938 L5.80859375,13.2878906 C5.80859375,13.4731641 5.87890625,13.6524609 6.00585937,13.7859375 L8.45117187,16.3658203 C8.5859375,16.5092578 8.76953125,16.5849609 8.95703125,16.5849609 C9.04492187,16.5849609 9.13476562,16.5670313 9.22070312,16.5331641 C9.48632812,16.4235938 9.66015625,16.160625 9.66015625,15.8677734 L9.66015625,8.03449219 L14.5136719,2.82492188 C14.9785156,2.35078125 15.1152344,1.64753906 14.8652344,1.02796875 Z M13.5195312,1.80890625 L8.4609375,7.22964844 C8.328125,7.36511719 8.25585937,7.54640625 8.25585937,7.73765625 L8.25585937,14.1525 L7.21679687,12.9970312 L7.21679687,7.76953125 C7.21679687,7.58027344 7.14257812,7.39699219 7.01171875,7.26351562 L1.47265625,1.80890625 C1.390625,1.72523438 1.40429688,1.63757813 1.42773438,1.5778125 C1.45117187,1.51804688 1.50585938,1.44632813 1.62109375,1.44632813 L13.3730469,1.44632813 C13.4882812,1.44632813 13.5410156,1.51804688 13.5664062,1.5778125 C13.5898437,1.63757813 13.6015625,1.72722656 13.5195312,1.80890625 Z" id="Shape"></path>
        </g>
    </g>
</svg>