<?xml version="1.0" encoding="UTF-8"?>
<svg width="16px" height="16px" viewBox="0 0 16 16" version="1.1" xmlns="http://www.w3.org/2000/svg" xmlns:xlink="http://www.w3.org/1999/xlink">
    <!-- Generator: Sketch 52.4 (67378) - http://www.bohemiancoding.com/sketch -->
    <title>Icon/Search</title>
    <desc>Created with Sketch.</desc>
    <defs>
        <path d="M15.8125,14.9017857 L12.1392857,11.2303571 C13.1232143,10.0428571 13.7142857,8.51964286 13.7142857,6.85714286 C13.7142857,3.06964286 10.6446429,0 6.85714286,0 C3.06964286,0 0,3.06964286 0,6.85714286 C0,10.6446429 3.06964286,13.7142857 6.85714286,13.7142857 C8.51964286,13.7142857 10.0428571,13.1232143 11.2303571,12.1392857 L14.9035714,15.8125 C15.0285714,15.9375 15.1928571,16 15.3589286,16 C15.525,16 15.6875,15.9375 15.8142857,15.8125 C16.0625,15.5607143 16.0625,15.1535714 15.8125,14.9017857 Z M9.025,11.9910714 C8.33928571,12.2821429 7.61071429,12.4285714 6.85714286,12.4285714 C6.10357143,12.4285714 5.375,12.2821429 4.68928571,11.9910714 C4.02678571,11.7107143 3.43035714,11.3089286 2.91785714,10.7964286 C2.40535714,10.2839286 2.00357143,9.6875 1.72321429,9.025 C1.43214286,8.33928571 1.28571429,7.61071429 1.28571429,6.85714286 C1.28571429,6.10357143 1.43214286,5.375 1.72321429,4.68928571 C2.00357143,4.02678571 2.40535714,3.43035714 2.91785714,2.91785714 C3.43035714,2.40535714 4.02678571,2.00357143 4.68928571,1.72321429 C5.375,1.43214286 6.10357143,1.28571429 6.85714286,1.28571429 C7.61071429,1.28571429 8.33928571,1.43214286 9.025,1.72321429 C9.6875,2.00357143 10.2839286,2.40535714 10.7964286,2.91785714 C11.3089286,3.43035714 11.7107143,4.02678571 11.9910714,4.68928571 C12.2821429,5.375 12.4285714,6.10357143 12.4285714,6.85714286 C12.4285714,7.61071429 12.2821429,8.33928571 11.9910714,9.025 C11.7107143,9.6875 11.3089286,10.2839286 10.7964286,10.7964286 C10.2839286,11.3089286 9.68928571,11.7107143 9.025,11.9910714 Z" id="path-1"></path>
    </defs>
    <g id="Faye" stroke="none" stroke-width="1" fill="none" fill-rule="evenodd">
        <g id="Icon/Search">
            <mask id="mask-2" fill="white">
                <use xlink:href="#path-1"></use>
            </mask>
            <use id="Mask" fill="#000000" fill-rule="nonzero" xlink:href="#path-1"></use>
        </g>
    </g>
</svg>