<?xml version="1.0" encoding="UTF-8"?>
<svg width="14px" height="14px" viewBox="0 0 14 14" version="1.1" xmlns="http://www.w3.org/2000/svg" xmlns:xlink="http://www.w3.org/1999/xlink">
    <!-- Generator: Sketch 52.4 (67378) - http://www.bohemiancoding.com/sketch -->
    <title>calendar</title>
    <desc>Created with Sketch.</desc>
    <g id="Faye" stroke="none" stroke-width="1" fill="none" fill-rule="evenodd">
        <g id="calendar" fill="#000000" fill-rule="nonzero">
            <path d="M12.4151786,0.964285714 L10.6071429,0.964285714 L10.6071429,0.542410714 C10.6071429,0.242578125 10.3645647,0 10.0647321,0 C9.76489955,0 9.52232143,0.242578125 9.52232143,0.542410714 L9.52232143,0.964285714 L3.97767857,0.964285714 L3.97767857,0.542410714 C3.97767857,0.242578125 3.73510045,0 3.43526786,0 C3.13543527,0 2.89285714,0.242578125 2.89285714,0.542410714 L2.89285714,0.964285714 L1.08482143,0.964285714 C0.48515625,0.964285714 0,1.44944196 0,2.04910714 L0,12.4151786 C0,13.0148438 0.48515625,13.5 1.08482143,13.5 L12.4151786,13.5 C13.0148438,13.5 13.5,13.0133371 13.5,12.4151786 L13.5,2.04910714 C13.5,1.44944196 13.0148438,0.964285714 12.4151786,0.964285714 Z M1.08482143,2.04910714 L2.89285714,2.04910714 L2.89285714,2.35044643 C2.89285714,2.65027902 3.13543527,2.89285714 3.43526786,2.89285714 C3.73510045,2.89285714 3.97767857,2.65027902 3.97767857,2.35044643 L3.97767857,2.04910714 L9.52232143,2.04910714 L9.52232143,2.35044643 C9.52232143,2.65027902 9.76489955,2.89285714 10.0647321,2.89285714 C10.3645647,2.89285714 10.6071429,2.65027902 10.6071429,2.35044643 L10.6071429,2.04910714 L12.4151786,2.04910714 L12.4151786,3.73660714 L1.08482143,3.73660714 L1.08482143,2.04910714 Z M12.4151786,12.4151786 L1.08482143,12.4151786 L1.08482143,4.82142857 L12.4151786,4.82142857 L12.4151786,12.4151786 Z M3.375,6.75 L4.33928571,6.75 C4.60597098,6.75 4.82142857,6.96545759 4.82142857,7.23214286 C4.82142857,7.49882813 4.60597098,7.71428571 4.33928571,7.71428571 L3.375,7.71428571 C3.10831473,7.71428571 2.89285714,7.49882813 2.89285714,7.23214286 C2.89285714,6.96545759 3.10831473,6.75 3.375,6.75 Z M6.26785714,6.75 L7.23214286,6.75 C7.49882813,6.75 7.71428571,6.96545759 7.71428571,7.23214286 C7.71428571,7.49882813 7.49882813,7.71428571 7.23214286,7.71428571 L6.26785714,7.71428571 C6.00117188,7.71428571 5.78571429,7.49882813 5.78571429,7.23214286 C5.78571429,6.96545759 6.00117188,6.75 6.26785714,6.75 Z M9.16071429,6.75 L10.125,6.75 C10.3916853,6.75 10.6071429,6.96545759 10.6071429,7.23214286 C10.6071429,7.49882813 10.3916853,7.71428571 10.125,7.71428571 L9.16071429,7.71428571 C8.89402902,7.71428571 8.67857143,7.49882813 8.67857143,7.23214286 C8.67857143,6.96545759 8.89402902,6.75 9.16071429,6.75 Z M3.375,9.67299107 L4.33928571,9.67299107 C4.60597098,9.67299107 4.82142857,9.88844866 4.82142857,10.1551339 C4.82142857,10.4218192 4.60597098,10.6372768 4.33928571,10.6372768 L3.375,10.6372768 C3.10831473,10.6372768 2.89285714,10.4218192 2.89285714,10.1551339 C2.89285714,9.88844866 3.10831473,9.67299107 3.375,9.67299107 Z M6.26785714,9.67299107 L7.23214286,9.67299107 C7.49882813,9.67299107 7.71428571,9.88844866 7.71428571,10.1551339 C7.71428571,10.4218192 7.49882813,10.6372768 7.23214286,10.6372768 L6.26785714,10.6372768 C6.00117188,10.6372768 5.78571429,10.4218192 5.78571429,10.1551339 C5.78571429,9.88844866 6.00117188,9.67299107 6.26785714,9.67299107 Z" id="Shape"></path>
        </g>
    </g>
</svg>