<?xml version="1.0" encoding="UTF-8"?>
<svg width="14px" height="17px" viewBox="0 0 14 17" version="1.1" xmlns="http://www.w3.org/2000/svg" xmlns:xlink="http://www.w3.org/1999/xlink">
    <!-- Generator: Sketch 52.4 (67378) - http://www.bohemiancoding.com/sketch -->
    <title>copy</title>
    <desc>Created with Sketch.</desc>
    <g id="Faye" stroke="none" stroke-width="1" fill="none" fill-rule="evenodd" fill-opacity="0.8">
        <g id="copy" fill="rgba(46, 100, 164, 1)" fill-rule="nonzero">
            <path d="M13.6276402,3.94785156 L9.72516297,0.353613281 C9.64302477,0.27890625 9.5535854,0.215820313 9.45684485,0.162695313 C9.43129074,0.149414063 9.40573664,0.136132813 9.37835724,0.124511719 C9.3619296,0.116210938 9.34367666,0.109570313 9.32724902,0.102929688 C9.16297262,0.0365234375 8.98226858,0 8.79791395,0 L3.66883963,0 C2.94237288,0 2.33637549,0.534570313 2.33637549,1.1953125 L2.33637549,2.125 L1.32333768,2.125 C0.596870926,2.125 0,2.66621094 0,3.32695313 L0,15.8113281 C0,16.4720703 0.596870926,17 1.32333768,17 L10.3585398,17 C11.0850065,17 11.6636245,16.4720703 11.6636245,15.8113281 L11.6636245,14.875 L12.7040417,14.875 C13.4305085,14.875 14,14.3404297 14,13.6796875 L14,4.78955078 C14,4.47412109 13.8722295,4.17197266 13.6276402,3.94785156 Z M9.47327249,1.8328125 L11.9702738,4.1171875 L9.47327249,4.1171875 L9.47327249,1.8328125 Z M10.3494133,15.8046875 L1.31421121,15.8046875 L1.31421121,3.3203125 L2.33637549,3.3203125 L2.33637549,13.6796875 C2.33637549,14.3404297 2.94237288,14.875 3.66883963,14.875 L10.3494133,14.875 L10.3494133,15.8046875 Z M12.6857888,13.6796875 L3.6505867,13.6796875 L3.6505867,1.1953125 L8.15906128,1.1953125 L8.15906128,4.1171875 C8.15906128,4.77792969 8.76505867,5.3125 9.49152542,5.3125 L12.6857888,5.3125 L12.6857888,13.6796875 Z M9.34550196,6.97265625 C9.34550196,6.64228516 9.05162973,6.375 8.68839635,6.375 L5.32985658,6.375 C4.96662321,6.375 4.67275098,6.64228516 4.67275098,6.97265625 C4.67275098,7.30302734 4.96662321,7.5703125 5.32985658,7.5703125 L8.68839635,7.5703125 C9.05162973,7.5703125 9.34550196,7.30302734 9.34550196,6.97265625 Z M11.6818774,9.09765625 C11.6818774,8.76728516 11.3880052,8.5 11.0247718,8.5 L5.32985658,8.5 C4.96662321,8.5 4.67275098,8.76728516 4.67275098,9.09765625 C4.67275098,9.42802734 4.96662321,9.6953125 5.32985658,9.6953125 L11.0247718,9.6953125 C11.3880052,9.6953125 11.6818774,9.42802734 11.6818774,9.09765625 Z M10.5136897,11.2226563 C10.5136897,10.8922852 10.2198175,10.625 9.85658409,10.625 L5.32985658,10.625 C4.96662321,10.625 4.67275098,10.8922852 4.67275098,11.2226563 C4.67275098,11.5530273 4.96662321,11.8203125 5.32985658,11.8203125 L9.85658409,11.8203125 C10.2198175,11.8203125 10.5136897,11.5530273 10.5136897,11.2226563 Z" id="Shape"></path>
        </g>
    </g>
</svg>