<?xml version="1.0" encoding="UTF-8"?>
<svg width="17px" height="17px" viewBox="0 0 17 17" version="1.1" xmlns="http://www.w3.org/2000/svg" xmlns:xlink="http://www.w3.org/1999/xlink">
    <!-- Generator: Sketch 52.4 (67378) - http://www.bohemiancoding.com/sketch -->
    <title>Shape</title>
    <desc>Created with Sketch.</desc>
    <g id="Faye" stroke="none" stroke-width="1" fill="none" fill-rule="evenodd">
        <path d="M12.9906451,12.1775424 L15.2570678,14.4445755 C15.4812391,14.668816 15.4812391,15.0322743 15.2570678,15.2565148 C15.1481031,15.3655131 15.0021854,15.4247026 14.8511346,15.4247026 C14.6999746,15.4247026 14.5543125,15.3656299 14.4451033,15.2565106 L12.1789309,12.9894589 L9.18771324,15.9818722 C9.07864282,16.0908528 8.93282934,16.15 8.78174629,16.15 C8.63066514,16.15 8.48494403,16.090883 8.37590903,15.9818143 C7.36481789,14.9704524 7.05622874,13.3485906 7.23417082,11.4084755 L3.85288876,7.82952824 L3.06890239,8.61346846 C2.96126829,8.72113582 2.81523058,8.78165632 2.66301605,8.78165632 C2.51076935,8.78165632 2.36484329,8.72118208 2.25703591,8.61346846 L1.01801635,7.3740662 C0.793954287,7.14980791 0.793993547,6.78646668 1.01813616,6.56225484 L6.56496657,1.01328889 C6.78255369,0.795570369 7.15918341,0.795570369 7.37676292,1.01328128 L8.61594703,2.25303582 C8.84011326,2.47733477 8.84017214,2.84066443 8.6160588,3.06497402 L7.83211011,3.84895893 L11.4101059,7.23130337 C11.7499522,7.20018703 12.0785733,7.18443485 12.3905565,7.18443485 C13.9802875,7.18443485 15.1907456,7.58218472 15.9818664,8.37364751 L15.9819048,8.37368601 C16.2059965,8.59803731 16.2060357,8.96128533 15.981948,9.18563278 L12.9906451,12.1775424 Z M8.83557199,14.7097444 L14.7105659,8.83325012 C14.1478341,8.50195015 13.3708645,8.33270293 12.3905096,8.33270293 C12.0389093,8.33270293 11.6623948,8.35522396 11.2721868,8.39968081 C11.1035624,8.4193047 10.9356404,8.36325101 10.8126978,8.24662237 L6.61462716,4.27831945 C6.50196443,4.17197108 6.43700364,4.02401908 6.43477756,3.86903474 C6.43262212,3.71385856 6.49310828,3.56473093 6.6027943,3.45475692 L7.39839657,2.65903311 L6.97090003,2.23124772 L2.23573358,6.96823599 L2.6630232,7.39562624 L3.45867504,6.59989424 C3.56631532,6.49228423 3.71234322,6.4317846 3.86453008,6.4317846 C3.86601925,6.4317846 3.86601925,6.4317846 3.86753187,6.4317846 C3.86904449,6.4317846 3.86904449,6.4317846 3.87268486,6.43180003 C4.02776627,6.43402433 4.1752848,6.49869198 4.28176948,6.611367 L8.24909521,10.811072 C8.36542269,10.9338506 8.42149013,11.1020538 8.40242079,11.2704242 C8.24198507,12.6792601 8.35299802,13.8898019 8.83557189,14.7097445 Z" id="Shape" stroke="#000000" stroke-width="0.3" fill="#000000" fill-rule="nonzero"></path>
    </g>
</svg>