<?xml version="1.0" encoding="UTF-8"?>
<svg width="16px" height="15px" viewBox="0 0 16 15" version="1.1" xmlns="http://www.w3.org/2000/svg" xmlns:xlink="http://www.w3.org/1999/xlink">
    <!-- Generator: Sketch 52.4 (67378) - http://www.bohemiancoding.com/sketch -->
    <title>Group 3 Copy 2复制</title>
    <desc>Created with Sketch.</desc>
    <g id="Faye" stroke="none" stroke-width="1" fill="none" fill-rule="evenodd">
        <g id="Group-3-Copy-2复制" transform="translate(0.000000, -1.000000)" fill="rgba(46, 100, 164, 1)" fill-rule="nonzero">
            <path d="M8,1.14285714 C3.58125,1.14285714 0,4.80836537 0,9.33107796 C0,12.0098416 1.25625,14.387944 3.2,15.8816546 L3.2015625,15.8784561 C3.296875,15.9536214 3.4171875,16 3.546875,16 C3.8578125,16 4.109375,15.7425188 4.109375,15.4242657 C4.109375,15.2131632 3.9984375,15.029248 3.8328125,14.9284945 C3.2421875,14.4679071 2.7265625,13.9097647 2.309375,13.2796555 L3,12.8718438 C3.2390625,12.7311087 3.3203125,12.4176534 3.1828125,12.1729663 C3.0453125,11.9282793 2.7390625,11.8451176 2.5,11.9858527 L1.809375,12.3936645 C1.4390625,11.6132247 1.20625,10.7512225 1.14375,9.84284177 L1.9375,9.84284177 C2.2140625,9.84284177 2.4375,9.61414732 2.4375,9.33107796 C2.4375,9.04800861 2.2140625,8.81931416 1.9375,8.81931416 L1.14375,8.81931416 C1.2078125,7.90773489 1.4421875,7.04413348 1.8125,6.26049516 L2.5,6.66670767 C2.7390625,6.80744272 3.0453125,6.7242811 3.1828125,6.47959403 C3.3203125,6.23490697 3.2390625,5.92145164 3,5.78071659 L2.3140625,5.37610334 C2.8015625,4.6436414 3.4203125,4.01033369 4.1359375,3.51136399 L4.53125,4.21343995 C4.66875,4.45812702 4.975,4.54128864 5.2140625,4.40055359 C5.453125,4.25981855 5.534375,3.94636322 5.396875,3.70167615 L5,2.99800092 C5.7640625,2.6173766 6.6078125,2.37908658 7.5,2.31351684 L7.5,3.12594187 C7.5,3.40901123 7.7234375,3.63770567 8,3.63770567 C8.2765625,3.63770567 8.5,3.40901123 8.5,3.12594187 L8.5,2.31351684 C9.3875,2.37908658 10.2296875,2.6173766 10.9921875,2.9948024 L10.59375,3.70167615 C10.45625,3.94636322 10.5375,4.25981855 10.7765625,4.40055359 C11.015625,4.54128864 11.321875,4.45812702 11.459375,4.21343995 L11.8578125,3.5065662 C12.5765625,4.00553591 13.196875,4.64044287 13.6859375,5.37610334 L13,5.78071659 C12.7609375,5.92145164 12.6796875,6.23490697 12.8171875,6.47959403 C12.9546875,6.7242811 13.2609375,6.80744272 13.5,6.66670767 L14.1875,6.26049516 C14.559375,7.04253421 14.7921875,7.90773489 14.85625,8.81931416 L14.0625,8.81931416 C13.7859375,8.81931416 13.5625,9.04800861 13.5625,9.33107796 C13.5625,9.61414732 13.7859375,9.84284177 14.0625,9.84284177 L14.85625,9.84284177 C14.7921875,10.7528218 14.559375,11.6132247 14.190625,12.3936645 L13.5,11.9858527 C13.2609375,11.8451176 12.9546875,11.9282793 12.8171875,12.1729663 C12.6796875,12.4176534 12.7609375,12.7311087 13,12.8718438 L13.690625,13.2796555 C13.2625,13.9257573 12.7328125,14.4934953 12.125,14.9604798 L12.128125,14.9652776 C11.9921875,15.0708288 11.90625,15.2371521 11.90625,15.4242657 C11.90625,15.7425188 12.1578125,16 12.46875,16 C12.625,16 12.7671875,15.9344303 12.8703125,15.8272797 C14.7734375,14.3319699 16,11.9778564 16,9.33107796 C16,4.80836537 12.41875,1.14285714 8,1.14285714 Z" id="Shape"></path>
            <path d="M10.4625,6.72108258 L8.4984375,8.29155774 C8.3484375,8.21479317 8.178125,8.17321236 8,8.17321236 C7.378125,8.17321236 6.875,8.68817469 6.875,9.32468092 C6.875,9.96118714 7.378125,10.4761495 8,10.4761495 C8.621875,10.4761495 9.125,9.96118714 9.125,9.32468092 C9.125,9.24951561 9.11875,9.17754882 9.1046875,9.1071813 L11.078125,7.52711056 C11.2953125,7.35279102 11.334375,7.03133938 11.1640625,6.80904198 C10.99375,6.58674458 10.6796875,6.54676303 10.4625,6.72108258 Z" id="Shape"></path>
        </g>
    </g>
</svg>